<?xml version="1.0" encoding="UTF-8"?>
<svg width="40px" height="53px" viewBox="0 0 40 53" version="1.1" xmlns="http://www.w3.org/2000/svg" xmlns:xlink="http://www.w3.org/1999/xlink">
    <!-- Generator: Sketch 52.2 (67145) - http://www.bohemiancoding.com/sketch -->
    <title>Combined Shape</title>
    <desc>Created with Sketch.</desc>
    <defs>
        <linearGradient x1="0%" y1="50%" x2="128.413041%" y2="100%" id="linearGradient-1">
            <stop stop-color="#05CBFF" offset="0%"></stop>
            <stop stop-color="#33ACFF" offset="37.1272191%"></stop>
            <stop stop-color="#1E5AFF" offset="100%"></stop>
        </linearGradient>
    </defs>
    <g id="SEECONF" stroke="none" stroke-width="1" fill="none" fill-rule="evenodd">
        <g id="Web-网站" transform="translate(-653.000000, -4876.000000)" fill="url(#linearGradient-1)">
            <g id="地图" transform="translate(0.000000, 4676.000000)">
                <g id="Group-18" transform="translate(653.000000, 200.000000)">
                    <path d="M4.51568798,32.5504392 C1.69336201,29.1139158 0,24.7206907 0,19.9332791 C0,8.92443306 8.954305,0 20,0 C31.045695,0 40,8.92443306 40,19.9332791 C40,24.7392742 38.2934661,29.1480165 35.4513945,32.590415 L21.6312496,52.1565161 C20.9939927,53.0587231 19.7460107,53.2735077 18.8438037,52.6362508 C18.6577382,52.504827 18.4954928,52.3425816 18.364069,52.1565161 L4.51568798,32.5504392 Z M19.9976593,30.9904926 C26.1334383,30.9904926 31.10747,26.0324742 31.10747,19.9164486 C31.10747,13.800423 26.1334383,8.84240463 19.9976593,8.84240463 C13.8618802,8.84240463 8.88784857,13.800423 8.88784857,19.9164486 C8.88784857,26.0324742 13.8618802,30.9904926 19.9976593,30.9904926 Z" id="Combined-Shape"></path>
                </g>
            </g>
        </g>
    </g>
</svg>